ply
format ascii 1.0
comment Created by Blender 2.76 (sub 0) - www.blender.org, source file: 'untitled.blend'
element vertex 56
property float x
property float y
property float z
property float nx
property float ny
property float nz
element face 18
property list uchar uint vertex_indices
end_header
0.031000 0.031000 -0.031000 0.000000 0.000000 -1.000000
0.031000 -0.031000 -0.031000 0.000000 0.000000 -1.000000
-0.031000 -0.031000 -0.031000 0.000000 0.000000 -1.000000
-0.031000 0.031000 -0.031000 0.000000 0.000000 -1.000000
-0.026040 -0.026040 0.031000 0.000000 0.000000 0.000000
0.026040 -0.026040 0.031000 0.000000 0.000000 0.000000
0.026040 -0.026040 0.031000 0.000000 0.000000 0.000000
-0.026040 -0.026040 0.031000 0.000000 0.000000 0.000000
0.031000 0.031000 -0.031000 1.000000 -0.000000 0.000000
0.031000 0.031000 0.031000 1.000000 -0.000000 0.000000
0.031000 -0.031000 0.031000 1.000000 -0.000000 0.000000
0.031000 -0.031000 -0.031000 1.000000 -0.000000 0.000000
0.031000 -0.031000 -0.031000 -0.000000 -1.000000 -0.000000
0.031000 -0.031000 0.031000 -0.000000 -1.000000 -0.000000
-0.031000 -0.031000 0.031000 -0.000000 -1.000000 -0.000000
-0.031000 -0.031000 -0.031000 -0.000000 -1.000000 -0.000000
-0.031000 -0.031000 -0.031000 -1.000000 0.000000 -0.000000
-0.031000 -0.031000 0.031000 -1.000000 0.000000 -0.000000
-0.031000 0.031000 0.031000 -1.000000 0.000000 -0.000000
-0.031000 0.031000 -0.031000 -1.000000 0.000000 -0.000000
0.031000 0.031000 0.031000 0.000000 1.000000 0.000000
0.031000 0.031000 -0.031000 0.000000 1.000000 0.000000
-0.031000 0.031000 -0.031000 0.000000 1.000000 0.000000
-0.031000 0.031000 0.031000 0.000000 1.000000 0.000000
0.026040 0.026040 0.031000 0.000000 0.000000 1.000000
0.026040 -0.026040 0.031000 0.000000 0.000000 1.000000
0.031000 -0.031000 0.031000 0.000000 0.000000 1.000000
0.031000 0.031000 0.031000 0.000000 0.000000 1.000000
-0.026040 0.026040 0.031000 0.000000 0.000000 1.000000
-0.031000 0.031000 0.031000 0.000000 0.000000 1.000000
-0.026040 -0.026040 0.031000 0.000000 -0.000000 1.000000
-0.031000 -0.031000 0.031000 0.000000 -0.000000 1.000000
-0.026040 0.026040 0.031000 1.000000 -0.000000 0.000000
-0.026040 -0.026040 0.031000 1.000000 -0.000000 0.000000
-0.026040 -0.026040 -0.023800 1.000000 -0.000000 0.000000
-0.026040 0.026040 -0.023800 1.000000 -0.000000 0.000000
0.026040 0.026040 0.031000 0.000000 0.000000 0.000000
0.026040 0.026040 0.031000 0.000000 0.000000 0.000000
-0.026040 0.026040 0.031000 0.000000 0.000000 0.000000
-0.026040 0.026040 0.031000 0.000000 0.000000 0.000000
0.026040 0.026040 -0.023800 0.000000 -0.000000 1.000000
-0.026040 0.026040 -0.023800 0.000000 -0.000000 1.000000
-0.026040 -0.026040 -0.023800 0.000000 -0.000000 1.000000
0.026040 -0.026040 -0.023800 0.000000 -0.000000 1.000000
0.026040 0.026040 0.031000 -0.000000 -1.000000 0.000000
-0.026040 0.026040 0.031000 -0.000000 -1.000000 0.000000
-0.026040 0.026040 -0.023800 -0.000000 -1.000000 0.000000
0.026040 0.026040 -0.023800 -0.000000 -1.000000 0.000000
-0.026040 -0.026040 0.031000 0.000000 1.000000 0.000000
0.026040 -0.026040 0.031000 0.000000 1.000000 0.000000
0.026040 -0.026040 -0.023800 0.000000 1.000000 0.000000
-0.026040 -0.026040 -0.023800 0.000000 1.000000 0.000000
0.026040 -0.026040 0.031000 -1.000000 0.000001 0.000000
0.026040 0.026040 0.031000 -1.000000 0.000001 0.000000
0.026040 0.026040 -0.023800 -1.000000 0.000001 0.000000
0.026040 -0.026040 -0.023800 -1.000000 0.000001 0.000000
4 0 1 2 3
4 4 5 6 7
4 8 9 10 11
4 12 13 14 15
4 16 17 18 19
4 20 21 22 23
4 24 25 26 27
4 28 24 27 29
4 25 30 31 26
4 30 28 29 31
4 32 33 34 35
4 5 36 37 6
4 38 4 7 39
4 36 38 39 37
4 40 41 42 43
4 44 45 46 47
4 48 49 50 51
4 52 53 54 55
